<svg xmlns="http://www.w3.org/2000/svg" width="15" height="17" viewBox="0 0 15 17">
    <g fill="none" fill-rule="evenodd">
        <g fill="#ED1724" fill-rule="nonzero">
            <g>
                <path d="M7.5 15c.276 0 .5-.222.5-.496V6.496C8 6.222 7.776 6 7.5 6s-.5.222-.5.496v8.008c0 .274.224.496.5.496zM10.5 15c.276 0 .5-.222.5-.496V6.496c0-.274-.224-.496-.5-.496s-.5.222-.5.496v8.008c0 .274.224.496.5.496zM4.5 15c.276 0 .5-.222.5-.496V6.496C5 6.222 4.776 6 4.5 6s-.5.222-.5.496v8.008c0 .274.224.496.5.496z" transform="translate(-186 -406) translate(186 406)"/>
                <path d="M.5 4.98H2v11.522c0 .275.224.498.5.498h10c.276 0 .5-.223.5-.498V4.98h1.5c.276 0 .5-.223.5-.498s-.224-.498-.5-.498H14V2.49c0-.275-.224-.498-.5-.498H10V.498C10 .223 9.776 0 9.5 0h-4c-.276 0-.5.223-.5.498v1.494H1.5c-.276 0-.5.223-.5.498v1.494H.5c-.276 0-.5.223-.5.498s.224.498.5.498zM12 16.004H3V4.98h9v11.024zM6 .996h3v.996H6V.996zM2 2.988h11v.996H2v-.996z" transform="translate(-186 -406) translate(186 406)"/>
            </g>
        </g>
    </g>
</svg>
